<svg xmlns="http://www.w3.org/2000/svg" width="100" height="100" viewBox="0 0 100 100">
  <!-- 背景圆形 -->
  <circle cx="50" cy="50" r="45" fill="rgba(100, 181, 246, 0.1)" stroke="#64B5F6" stroke-width="2"/>
  
  <!-- 未来图标 - 火箭 -->
  <path d="M50,20 C60,20 70,30 70,50 L70,65 L60,55 L60,70 L50,60 L40,70 L40,55 L30,65 L30,50 C30,30 40,20 50,20 Z" 
        fill="none" stroke="#64B5F6" stroke-width="2" stroke-linejoin="round"/>
  
  <!-- 火箭窗口 -->
  <circle cx="50" cy="40" r="5" fill="none" stroke="#64B5F6" stroke-width="2"/>
  
  <!-- 星星 -->
  <path d="M20,20 L22,25 L27,25 L23,28 L25,33 L20,30 L15,33 L17,28 L13,25 L18,25 Z" fill="#64B5F6" opacity="0.7"/>
  <path d="M75,30 L77,35 L82,35 L78,38 L80,43 L75,40 L70,43 L72,38 L68,35 L73,35 Z" fill="#64B5F6" opacity="0.7"/>
</svg>