<svg xmlns="http://www.w3.org/2000/svg" width="1200" height="800" viewBox="0 0 1200 800">
  <!-- 背景渐变 -->
  <defs>
    <linearGradient id="bg-gradient" x1="0%" y1="0%" x2="100%" y2="100%">
      <stop offset="0%" stop-color="#0D1117" stop-opacity="1"/>
      <stop offset="100%" stop-color="#161B22" stop-opacity="1"/>
    </linearGradient>
    <radialGradient id="glow" cx="50%" cy="50%" r="50%" fx="50%" fy="50%">
      <stop offset="0%" stop-color="#64B5F6" stop-opacity="0.3"/>
      <stop offset="100%" stop-color="#64B5F6" stop-opacity="0"/>
    </radialGradient>
  </defs>
  
  <!-- 背景 -->
  <rect width="100%" height="100%" fill="url(#bg-gradient)"/>
  
  <!-- 发光效果 -->
  <circle cx="600" cy="400" r="300" fill="url(#glow)" opacity="0.5"/>
  
  <!-- 网格线 -->
  <g stroke="#64B5F6" stroke-width="0.5" opacity="0.15">
    <!-- 水平线 -->
    <line x1="0" y1="100" x2="1200" y2="100"/>
    <line x1="0" y1="200" x2="1200" y2="200"/>
    <line x1="0" y1="300" x2="1200" y2="300"/>
    <line x1="0" y1="400" x2="1200" y2="400"/>
    <line x1="0" y1="500" x2="1200" y2="500"/>
    <line x1="0" y1="600" x2="1200" y2="600"/>
    <line x1="0" y1="700" x2="1200" y2="700"/>
    
    <!-- 垂直线 -->
    <line x1="100" y1="0" x2="100" y2="800"/>
    <line x1="200" y1="0" x2="200" y2="800"/>
    <line x1="300" y1="0" x2="300" y2="800"/>
    <line x1="400" y1="0" x2="400" y2="800"/>
    <line x1="500" y1="0" x2="500" y2="800"/>
    <line x1="600" y1="0" x2="600" y2="800"/>
    <line x1="700" y1="0" x2="700" y2="800"/>
    <line x1="800" y1="0" x2="800" y2="800"/>
    <line x1="900" y1="0" x2="900" y2="800"/>
    <line x1="1000" y1="0" x2="1000" y2="800"/>
    <line x1="1100" y1="0" x2="1100" y2="800"/>
  </g>
  
  <!-- 抽象AI元素 -->
  <g fill="none" stroke="#64B5F6" stroke-width="2">
    <!-- 神经网络节点 -->
    <circle cx="300" cy="200" r="8" fill="#64B5F6" opacity="0.7"/>
    <circle cx="400" cy="300" r="8" fill="#64B5F6" opacity="0.7"/>
    <circle cx="500" cy="250" r="8" fill="#64B5F6" opacity="0.7"/>
    <circle cx="600" cy="350" r="8" fill="#64B5F6" opacity="0.7"/>
    <circle cx="700" cy="200" r="8" fill="#64B5F6" opacity="0.7"/>
    <circle cx="800" cy="300" r="8" fill="#64B5F6" opacity="0.7"/>
    <circle cx="900" cy="250" r="8" fill="#64B5F6" opacity="0.7"/>
    
    <!-- 连接线 -->
    <line x1="300" y1="200" x2="400" y2="300" stroke-opacity="0.5"/>
    <line x1="400" y1="300" x2="500" y2="250" stroke-opacity="0.5"/>
    <line x1="500" y1="250" x2="600" y2="350" stroke-opacity="0.5"/>
    <line x1="600" y1="350" x2="700" y2="200" stroke-opacity="0.5"/>
    <line x1="700" y1="200" x2="800" y2="300" stroke-opacity="0.5"/>
    <line x1="800" y1="300" x2="900" y2="250" stroke-opacity="0.5"/>
    
    <!-- 交叉连接 -->
    <line x1="300" y1="200" x2="500" y2="250" stroke-opacity="0.3"/>
    <line x1="400" y1="300" x2="600" y2="350" stroke-opacity="0.3"/>
    <line x1="500" y1="250" x2="700" y2="200" stroke-opacity="0.3"/>
    <line x1="600" y1="350" x2="800" y2="300" stroke-opacity="0.3"/>
    <line x1="700" y1="200" x2="900" y2="250" stroke-opacity="0.3"/>
  </g>
  
  <!-- 抽象数据流 -->
  <g opacity="0.2">
    <path d="M100,600 Q300,400 500,600 T900,600" stroke="#64B5F6" stroke-width="3" fill="none"/>
    <path d="M100,650 Q300,450 500,650 T900,650" stroke="#64B5F6" stroke-width="2" fill="none"/>
    <path d="M100,700 Q300,500 500,700 T900,700" stroke="#64B5F6" stroke-width="1" fill="none"/>
  </g>
  
  <!-- 点阵 -->
  <g fill="#64B5F6" opacity="0.5">
    <circle cx="150" cy="150" r="1"/>
    <circle cx="200" cy="150" r="1"/>
    <circle cx="250" cy="150" r="1"/>
    <circle cx="150" cy="200" r="1"/>
    <circle cx="200" cy="200" r="1"/>
    <circle cx="250" cy="200" r="1"/>
    <circle cx="150" cy="250" r="1"/>
    <circle cx="200" cy="250" r="1"/>
    <circle cx="250" cy="250" r="1"/>
    
    <circle cx="950" cy="550" r="1"/>
    <circle cx="1000" cy="550" r="1"/>
    <circle cx="1050" cy="550" r="1"/>
    <circle cx="950" cy="600" r="1"/>
    <circle cx="1000" cy="600" r="1"/>
    <circle cx="1050" cy="600" r="1"/>
    <circle cx="950" cy="650" r="1"/>
    <circle cx="1000" cy="650" r="1"/>
    <circle cx="1050" cy="650" r="1"/>
  </g>
</svg>